# Blender v2.79 (sub 0) OBJ File: 'faiz_maze_3.blend'
# www.blender.org
mtllib faiz_maze_floor3.mtl
o Plane.001
v -4.983525 -0.012447 5.008999
v 4.971365 -0.012447 5.008999
v -4.983525 -0.012447 -5.003871
v 4.971365 -0.012447 -5.003871
v -4.983525 -0.370443 -5.003871
v -4.983525 -0.370443 5.008999
v 4.971365 -0.370443 5.008999
v 4.971365 -0.370443 -5.003871
vn 0.0000 -1.0000 0.0000
vn 0.0000 1.0000 0.0000
vn 0.0000 0.0000 1.0000
vn 0.0000 0.0000 -1.0000
vn -1.0000 0.0000 0.0000
vn 1.0000 0.0000 0.0000
usemtl None
s off
f 1//1 3//1 4//1 2//1
f 6//2 7//2 8//2 5//2
f 4//3 3//3 5//3 8//3
f 1//4 2//4 7//4 6//4
f 2//5 4//5 8//5 7//5
f 3//6 1//6 6//6 5//6
